<svg xmlns="http://www.w3.org/2000/svg">
  <symbol id="friends" viewBox="0 0 20 20">
    <g>
      <path d="M18.9061 16.0937H17.0311V14.2187C17.0311 14.1156 16.9467 14.0312 16.8436 14.0312H15.7186C15.6155 14.0312 15.5311 14.1156 15.5311 14.2187V16.0937H13.6561C13.553 16.0937 13.4686 16.1781 13.4686 16.2812V17.4062C13.4686 17.5093 13.553 17.5937 13.6561 17.5937H15.5311V19.4687C15.5311 19.5718 15.6155 19.6562 15.7186 19.6562H16.8436C16.9467 19.6562 17.0311 19.5718 17.0311 19.4687V17.5937H18.9061C19.0092 17.5937 19.0936 17.5093 19.0936 17.4062V16.2812C19.0936 16.1781 19.0092 16.0937 18.9061 16.0937ZM6.75376 9.68122C6.73266 9.47731 6.72094 9.27106 6.72094 9.06247C6.72094 8.68981 6.7561 8.32653 6.82173 7.97263C6.83813 7.88825 6.7936 7.80153 6.71626 7.76638C6.39751 7.62341 6.10454 7.42653 5.85141 7.1781C5.55315 6.88889 5.31844 6.54069 5.16227 6.15571C5.0061 5.77073 4.93189 5.35742 4.94438 4.94216C4.96548 4.18981 5.26782 3.47497 5.79516 2.93591C6.37407 2.34294 7.15219 2.0195 7.97954 2.02888C8.72719 2.03591 9.44907 2.32419 9.99516 2.83513C10.1803 3.00856 10.3397 3.20075 10.4733 3.407C10.5202 3.47966 10.6116 3.51013 10.6913 3.482C11.1038 3.33903 11.5397 3.23825 11.9874 3.19138C12.1186 3.17731 12.1936 3.03669 12.135 2.9195C11.3733 1.41247 9.81704 0.371845 8.01704 0.34372C5.42016 0.303876 3.25454 2.43435 3.25454 5.03122C3.25454 6.5031 3.93188 7.8156 4.9936 8.67575C4.24829 9.02028 3.56157 9.49606 2.96626 10.0914C1.68188 11.3734 0.95532 13.0656 0.908445 14.8726C0.907819 14.8976 0.912207 14.9225 0.921349 14.9458C0.930492 14.9691 0.944204 14.9903 0.961677 15.0082C0.979151 15.0262 1.00003 15.0404 1.02309 15.0501C1.04615 15.0598 1.07092 15.0648 1.09595 15.0648H2.41079C2.51157 15.0648 2.59594 14.9851 2.59829 14.8843C2.64282 13.525 3.1936 12.2523 4.16157 11.2867C4.85063 10.5976 5.69438 10.1195 6.61548 9.88747C6.70454 9.86169 6.76548 9.77497 6.75376 9.68122ZM17.3124 9.06247C17.3124 6.49841 15.2522 4.41481 12.6975 4.37497C10.1006 4.33513 7.93735 6.4656 7.93735 9.06247C7.93735 10.5343 8.61704 11.8468 9.67641 12.707C8.92338 13.0561 8.23787 13.5353 7.65141 14.1226C6.36704 15.4047 5.64048 17.0968 5.5936 18.9015C5.59298 18.9265 5.59736 18.9514 5.60651 18.9747C5.61565 18.998 5.62936 19.0192 5.64683 19.0372C5.66431 19.0551 5.68519 19.0693 5.70825 19.079C5.73131 19.0887 5.75608 19.0937 5.7811 19.0937H7.0936C7.19438 19.0937 7.27876 19.014 7.2811 18.9132C7.32563 17.5539 7.87641 16.2812 8.84438 15.3156C9.85454 14.3054 11.1952 13.75 12.6249 13.75C15.2124 13.75 17.3124 11.6523 17.3124 9.06247ZM14.7459 11.1836C14.1788 11.7508 13.4264 12.0625 12.6249 12.0625C11.8233 12.0625 11.0709 11.7508 10.5038 11.1836C10.2207 10.902 9.99709 10.5665 9.84612 10.1969C9.69514 9.82733 9.6199 9.4312 9.62485 9.032C9.63188 8.26325 9.93891 7.52028 10.4756 6.9695C11.0381 6.39294 11.7905 6.07185 12.5944 6.06247C13.3889 6.05544 14.16 6.36481 14.7272 6.92028C15.3084 7.48981 15.6272 8.25153 15.6272 9.06247C15.6249 9.86403 15.3131 10.6164 14.7459 11.1836Z"/>
    </g>
  </symbol>
  
  <symbol id="bell" viewBox="0 0 16 22">
    <g>
      <path d="M15.125 17H14.5625V9.03125C14.5625 5.72422 12.118 2.99141 8.9375 2.53672V1.625C8.9375 1.10703 8.51797 0.6875 8 0.6875C7.48203 0.6875 7.0625 1.10703 7.0625 1.625V2.53672C3.88203 2.99141 1.4375 5.72422 1.4375 9.03125V17H0.875C0.460156 17 0.125 17.3352 0.125 17.75V18.5C0.125 18.6031 0.209375 18.6875 0.3125 18.6875H5.375C5.375 20.1359 6.55156 21.3125 8 21.3125C9.44844 21.3125 10.625 20.1359 10.625 18.6875H15.6875C15.7906 18.6875 15.875 18.6031 15.875 18.5V17.75C15.875 17.3352 15.5398 17 15.125 17ZM8 19.8125C7.37891 19.8125 6.875 19.3086 6.875 18.6875H9.125C9.125 19.3086 8.62109 19.8125 8 19.8125ZM3.125 17V9.03125C3.125 7.72813 3.63125 6.50469 4.55234 5.58359C5.47344 4.6625 6.69688 4.15625 8 4.15625C9.30313 4.15625 10.5266 4.6625 11.4477 5.58359C12.3687 6.50469 12.875 7.72813 12.875 9.03125V17H3.125Z"/>
    </g>
  </symbol>

  <symbol id="info-circle" viewBox="0 0 24 24">
    <g>
      <path d="M12 1.5C6.20156 1.5 1.5 6.20156 1.5 12C1.5 17.7984 6.20156 22.5 12 22.5C17.7984 22.5 22.5 17.7984 22.5 12C22.5 6.20156 17.7984 1.5 12 1.5ZM12 20.7188C7.18594 20.7188 3.28125 16.8141 3.28125 12C3.28125 7.18594 7.18594 3.28125 12 3.28125C16.8141 3.28125 20.7188 7.18594 20.7188 12C20.7188 16.8141 16.8141 20.7188 12 20.7188Z"/>
      <path d="M10.875 7.875C10.875 8.17337 10.9935 8.45952 11.2045 8.6705C11.4155 8.88147 11.7016 9 12 9C12.2984 9 12.5845 8.88147 12.7955 8.6705C13.0065 8.45952 13.125 8.17337 13.125 7.875C13.125 7.57663 13.0065 7.29048 12.7955 7.0795C12.5845 6.86853 12.2984 6.75 12 6.75C11.7016 6.75 11.4155 6.86853 11.2045 7.0795C10.9935 7.29048 10.875 7.57663 10.875 7.875ZM12.5625 10.5H11.4375C11.3344 10.5 11.25 10.5844 11.25 10.6875V17.0625C11.25 17.1656 11.3344 17.25 11.4375 17.25H12.5625C12.6656 17.25 12.75 17.1656 12.75 17.0625V10.6875C12.75 10.5844 12.6656 10.5 12.5625 10.5Z"/>
    </g>
  </symbol>

  <symbol id="news-feed" viewBox="0 0 24 24">
    <g>
      <path d="M20.625 2.625H3.375C2.96016 2.625 2.625 2.96016 2.625 3.375V20.625C2.625 21.0398 2.96016 21.375 3.375 21.375H20.625C21.0398 21.375 21.375 21.0398 21.375 20.625V3.375C21.375 2.96016 21.0398 2.625 20.625 2.625ZM19.6875 19.6875H4.3125V4.3125H19.6875V19.6875Z" fill="#1890FF"/>
      <path d="M4.3125 19.6875H19.6875V4.3125H4.3125V19.6875ZM11.3438 8.0625C11.3438 7.95937 11.4281 7.875 11.5312 7.875H15.8438C15.9469 7.875 16.0312 7.95937 16.0312 8.0625V9.1875C16.0312 9.29063 15.9469 9.375 15.8438 9.375H11.5312C11.4281 9.375 11.3438 9.29063 11.3438 9.1875V8.0625ZM11.3438 11.4375C11.3438 11.3344 11.4281 11.25 11.5312 11.25H15.8438C15.9469 11.25 16.0312 11.3344 16.0312 11.4375V12.5625C16.0312 12.6656 15.9469 12.75 15.8438 12.75H11.5312C11.4281 12.75 11.3438 12.6656 11.3438 12.5625V11.4375ZM11.3438 14.8125C11.3438 14.7094 11.4281 14.625 11.5312 14.625H15.8438C15.9469 14.625 16.0312 14.7094 16.0312 14.8125V15.9375C16.0312 16.0406 15.9469 16.125 15.8438 16.125H11.5312C11.4281 16.125 11.3438 16.0406 11.3438 15.9375V14.8125ZM8.90625 7.6875C9.42422 7.6875 9.84375 8.10703 9.84375 8.625C9.84375 9.14297 9.42422 9.5625 8.90625 9.5625C8.38828 9.5625 7.96875 9.14297 7.96875 8.625C7.96875 8.10703 8.38828 7.6875 8.90625 7.6875ZM8.90625 11.0625C9.42422 11.0625 9.84375 11.482 9.84375 12C9.84375 12.518 9.42422 12.9375 8.90625 12.9375C8.38828 12.9375 7.96875 12.518 7.96875 12C7.96875 11.482 8.38828 11.0625 8.90625 11.0625ZM8.90625 14.4375C9.42422 14.4375 9.84375 14.857 9.84375 15.375C9.84375 15.893 9.42422 16.3125 8.90625 16.3125C8.38828 16.3125 7.96875 15.893 7.96875 15.375C7.96875 14.857 8.38828 14.4375 8.90625 14.4375Z" fill="#E6F7FF"/>
      <path d="M7.96875 15.375C7.96875 15.6236 8.06752 15.8621 8.24334 16.0379C8.41915 16.2137 8.65761 16.3125 8.90625 16.3125C9.15489 16.3125 9.39335 16.2137 9.56916 16.0379C9.74498 15.8621 9.84375 15.6236 9.84375 15.375C9.84375 15.1264 9.74498 14.8879 9.56916 14.7121C9.39335 14.5363 9.15489 14.4375 8.90625 14.4375C8.65761 14.4375 8.41915 14.5363 8.24334 14.7121C8.06752 14.8879 7.96875 15.1264 7.96875 15.375ZM7.96875 12C7.96875 12.2486 8.06752 12.4871 8.24334 12.6629C8.41915 12.8387 8.65761 12.9375 8.90625 12.9375C9.15489 12.9375 9.39335 12.8387 9.56916 12.6629C9.74498 12.4871 9.84375 12.2486 9.84375 12C9.84375 11.7514 9.74498 11.5129 9.56916 11.3371C9.39335 11.1613 9.15489 11.0625 8.90625 11.0625C8.65761 11.0625 8.41915 11.1613 8.24334 11.3371C8.06752 11.5129 7.96875 11.7514 7.96875 12ZM7.96875 8.625C7.96875 8.87364 8.06752 9.1121 8.24334 9.28791C8.41915 9.46373 8.65761 9.5625 8.90625 9.5625C9.15489 9.5625 9.39335 9.46373 9.56916 9.28791C9.74498 9.1121 9.84375 8.87364 9.84375 8.625C9.84375 8.37636 9.74498 8.1379 9.56916 7.96209C9.39335 7.78627 9.15489 7.6875 8.90625 7.6875C8.65761 7.6875 8.41915 7.78627 8.24334 7.96209C8.06752 8.1379 7.96875 8.37636 7.96875 8.625ZM11.5312 16.125H15.8438C15.9469 16.125 16.0312 16.0406 16.0312 15.9375V14.8125C16.0312 14.7094 15.9469 14.625 15.8438 14.625H11.5312C11.4281 14.625 11.3438 14.7094 11.3438 14.8125V15.9375C11.3438 16.0406 11.4281 16.125 11.5312 16.125ZM11.5312 12.75H15.8438C15.9469 12.75 16.0312 12.6656 16.0312 12.5625V11.4375C16.0312 11.3344 15.9469 11.25 15.8438 11.25H11.5312C11.4281 11.25 11.3438 11.3344 11.3438 11.4375V12.5625C11.3438 12.6656 11.4281 12.75 11.5312 12.75ZM11.5312 9.375H15.8438C15.9469 9.375 16.0312 9.29062 16.0312 9.1875V8.0625C16.0312 7.95937 15.9469 7.875 15.8438 7.875H11.5312C11.4281 7.875 11.3438 7.95937 11.3438 8.0625V9.1875C11.3438 9.29062 11.4281 9.375 11.5312 9.375Z" fill="#1890FF"/>
    </g>
  </symbol>

  <symbol id="message" viewBox="0 0 24 24">
    <g>
      <path d="M18.1719 5.83371C17.3735 5.03264 16.426 4.39565 15.3828 3.95871C14.3129 3.50917 13.1637 3.27885 12.0031 3.28136H11.9633C9.62659 3.29074 7.43987 4.2048 5.80393 5.85714C4.16565 7.50949 3.27268 9.70324 3.28206 12.04C3.28909 13.4532 3.64065 14.8571 4.30159 16.097L4.40706 16.2939V19.5939H7.70706L7.90393 19.6993C9.14377 20.3603 10.5477 20.7118 11.961 20.7189H12.0008C14.3211 20.7189 16.5008 19.8235 18.1438 18.197C19.7938 16.561 20.7102 14.3743 20.7242 12.04C20.7289 10.854 20.5016 9.70558 20.0469 8.62277C19.6097 7.57975 18.9727 6.63229 18.1719 5.83371ZM7.31331 13.1251C7.01891 13.1191 6.73861 12.9979 6.53253 12.7876C6.32646 12.5773 6.21104 12.2946 6.21104 12.0001C6.21104 11.7057 6.32646 11.4229 6.53253 11.2126C6.73861 11.0023 7.01891 10.8811 7.31331 10.8751C7.6077 10.8811 7.88801 11.0023 8.09408 11.2126C8.30015 11.4229 8.41558 11.7057 8.41558 12.0001C8.41558 12.2946 8.30015 12.5773 8.09408 12.7876C7.88801 12.9979 7.6077 13.1191 7.31331 13.1251ZM12.0008 13.1251C11.7064 13.1191 11.4261 12.9979 11.22 12.7876C11.014 12.5773 10.8985 12.2946 10.8985 12.0001C10.8985 11.7057 11.014 11.4229 11.22 11.2126C11.4261 11.0023 11.7064 10.8811 12.0008 10.8751C12.2952 10.8811 12.5755 11.0023 12.7816 11.2126C12.9877 11.4229 13.1031 11.7057 13.1031 12.0001C13.1031 12.2946 12.9877 12.5773 12.7816 12.7876C12.5755 12.9979 12.2952 13.1191 12.0008 13.1251ZM16.6883 13.1251C16.3939 13.1191 16.1136 12.9979 15.9075 12.7876C15.7015 12.5773 15.586 12.2946 15.586 12.0001C15.586 11.7057 15.7015 11.4229 15.9075 11.2126C16.1136 11.0023 16.3939 10.8811 16.6883 10.8751C16.9827 10.8811 17.263 11.0023 17.4691 11.2126C17.6752 11.4229 17.7906 11.7057 17.7906 12.0001C17.7906 12.2946 17.6752 12.5773 17.4691 12.7876C17.263 12.9979 16.9827 13.1191 16.6883 13.1251Z" fill="currentColor"/>
      <path d="M15.5625 12C15.5625 12.2984 15.681 12.5845 15.892 12.7955C16.103 13.0065 16.3891 13.125 16.6875 13.125C16.9859 13.125 17.272 13.0065 17.483 12.7955C17.694 12.5845 17.8125 12.2984 17.8125 12C17.8125 11.7016 17.694 11.4155 17.483 11.2045C17.272 10.9935 16.9859 10.875 16.6875 10.875C16.3891 10.875 16.103 10.9935 15.892 11.2045C15.681 11.4155 15.5625 11.7016 15.5625 12ZM6.1875 12C6.1875 12.2984 6.30603 12.5845 6.517 12.7955C6.72798 13.0065 7.01413 13.125 7.3125 13.125C7.61087 13.125 7.89702 13.0065 8.108 12.7955C8.31897 12.5845 8.4375 12.2984 8.4375 12C8.4375 11.7016 8.31897 11.4155 8.108 11.2045C7.89702 10.9935 7.61087 10.875 7.3125 10.875C7.01413 10.875 6.72798 10.9935 6.517 11.2045C6.30603 11.4155 6.1875 11.7016 6.1875 12Z"/>
      <path d="M21.6846 7.93125C21.1549 6.67266 20.3955 5.54297 19.4275 4.57266C18.4663 3.60796 17.3253 2.84114 16.0689 2.31563C14.7799 1.77422 13.4111 1.5 12.0002 1.5H11.9533C10.533 1.50703 9.15723 1.78828 7.86348 2.34141C6.61791 2.87232 5.48753 3.64049 4.53535 4.60312C3.57676 5.57109 2.82441 6.69609 2.3041 7.95C1.76504 9.24844 1.49316 10.6289 1.50019 12.0492C1.50815 13.6769 1.89322 15.2806 2.62519 16.7344V20.2969C2.62519 20.5828 2.73878 20.857 2.94097 21.0592C3.14316 21.2614 3.41738 21.375 3.70332 21.375H7.26816C8.72198 22.107 10.3257 22.492 11.9533 22.5H12.0025C13.4064 22.5 14.7682 22.2281 16.0502 21.6961C17.3002 21.1768 18.437 20.419 19.3971 19.4648C20.365 18.5063 21.1268 17.3859 21.6588 16.1367C22.2119 14.843 22.4932 13.4672 22.5002 12.0469C22.5072 10.6195 22.2307 9.23438 21.6846 7.93125ZM18.1432 18.1969C16.5002 19.8234 14.3205 20.7188 12.0002 20.7188H11.9604C10.5471 20.7117 9.14316 20.3602 7.90332 19.6992L7.70644 19.5938H4.40644V16.2938L4.30098 16.0969C3.64004 14.857 3.28848 13.4531 3.28144 12.0398C3.27207 9.70312 4.16504 7.50937 5.80332 5.85703C7.43926 4.20469 9.62598 3.29062 11.9627 3.28125H12.0025C13.1744 3.28125 14.3111 3.50859 15.3822 3.95859C16.4275 4.39687 17.365 5.02734 18.1713 5.83359C18.9752 6.6375 19.608 7.57734 20.0463 8.62266C20.501 9.70547 20.7283 10.8539 20.7236 12.0398C20.7096 14.3742 19.7932 16.5609 18.1432 18.1969Z"/>
      <path d="M10.875 12C10.875 12.2984 10.9935 12.5845 11.2045 12.7955C11.4155 13.0065 11.7016 13.125 12 13.125C12.2984 13.125 12.5845 13.0065 12.7955 12.7955C13.0065 12.5845 13.125 12.2984 13.125 12C13.125 11.7016 13.0065 11.4155 12.7955 11.2045C12.5845 10.9935 12.2984 10.875 12 10.875C11.7016 10.875 11.4155 10.9935 11.2045 11.2045C10.9935 11.4155 10.875 11.7016 10.875 12Z"/>
    </g>
  </symbol>

  <symbol id="marketplace" viewBox="0 0 24 24">
    <g>
      <path d="M19.6758 8.0625H4.32422C4.31719 8.0625 4.3125 8.06719 4.3125 8.07422V10.2117C4.3125 11.6133 5.46094 12.75 6.87422 12.75C7.82812 12.75 8.66016 12.2344 9.10312 11.468C9.17109 11.3484 9.3 11.2734 9.43828 11.2734C9.57656 11.2734 9.70312 11.3484 9.77344 11.468C10.2141 12.2344 11.0461 12.75 12 12.75C12.9563 12.75 13.7906 12.232 14.2289 11.4633C14.2969 11.3461 14.4211 11.2734 14.5547 11.2734H14.5687C14.7047 11.2734 14.8266 11.3461 14.8945 11.4633C15.3352 12.232 16.1695 12.75 17.1258 12.75C18.5391 12.75 19.6875 11.6133 19.6875 10.2117V8.07422C19.6875 8.06719 19.6828 8.0625 19.6758 8.0625Z" fill="#E6F7FF"/>
      <path d="M20.6723 6.37734V3.375C20.6723 2.96016 20.3371 2.625 19.9223 2.625H4.07851C3.66366 2.625 3.32851 2.96016 3.32851 3.375V6.37734C2.9371 6.40078 2.62538 6.72656 2.62538 7.125V10.2117C2.62388 10.779 2.73875 11.3406 2.96288 11.8617C3.06366 12.1008 3.18788 12.3258 3.32851 12.5391V20.625C3.32851 21.0375 3.66366 21.375 4.07851 21.375H19.9223C20.3371 21.375 20.6723 21.0398 20.6723 20.625V12.5391C20.8151 12.3252 20.9375 12.0985 21.0379 11.8617C21.2605 11.3391 21.3754 10.7836 21.3754 10.2117V7.125C21.3754 6.72656 21.0637 6.40078 20.6723 6.37734ZM5.01601 4.3125H18.9848V6.375H5.01601V4.3125ZM13.5004 19.6898H10.5004V17.25H13.5004V19.6898ZM18.9941 19.6898H15.0004V16.5C15.0004 16.0852 14.6652 15.75 14.2504 15.75H9.75038C9.33554 15.75 9.00038 16.0852 9.00038 16.5V19.6898H5.01601V14.0133C5.08397 14.0461 5.15429 14.0789 5.22694 14.107C5.7496 14.3273 6.30507 14.4375 6.87694 14.4375C7.44882 14.4375 8.00194 14.3273 8.52694 14.107C8.85038 13.9711 9.15507 13.7977 9.43397 13.5891C9.43866 13.5867 9.44335 13.5867 9.44804 13.5891C9.72781 13.7985 10.0325 13.9725 10.3551 14.107C10.8777 14.3273 11.4332 14.4375 12.0051 14.4375C12.5769 14.4375 13.1301 14.3273 13.6551 14.107C13.9785 13.9711 14.2832 13.7977 14.5621 13.5891C14.5668 13.5867 14.5715 13.5867 14.5762 13.5891C14.8559 13.7985 15.1606 13.9725 15.4832 14.107C16.0058 14.3273 16.5613 14.4375 17.1332 14.4375C17.7051 14.4375 18.2582 14.3273 18.7832 14.107C18.8535 14.0766 18.9238 14.0461 18.9941 14.0133V19.6898ZM19.6879 10.2117C19.6879 11.6133 18.5394 12.75 17.1262 12.75C16.1699 12.75 15.3355 12.232 14.8949 11.4633C14.8269 11.3461 14.7051 11.2734 14.5691 11.2734H14.5551C14.4215 11.2734 14.2973 11.3461 14.2293 11.4633C14.0044 11.8554 13.6798 12.1811 13.2883 12.4071C12.8968 12.6331 12.4524 12.7514 12.0004 12.75C11.0465 12.75 10.2144 12.2344 9.77382 11.468C9.70351 11.3484 9.57694 11.2734 9.43866 11.2734C9.30038 11.2734 9.17147 11.3484 9.10351 11.468C8.87734 11.8586 8.55224 12.1828 8.16096 12.4079C7.76967 12.6329 7.326 12.7509 6.8746 12.75C5.46132 12.75 4.31288 11.6133 4.31288 10.2117V8.07422C4.31288 8.06719 4.31757 8.0625 4.3246 8.0625H19.6762C19.6832 8.0625 19.6879 8.06719 19.6879 8.07422V10.2117Z" fill="#1890FF"/>
    </g>
  </symbol>

  <symbol id="cup" viewBox="0 0 20 20">
    <g>
      <path d="M18.3438 1.75H16.1875V0.8125C16.1875 0.709375 16.1031 0.625 16 0.625H4C3.89687 0.625 3.8125 0.709375 3.8125 0.8125V1.75H1.65625C1.38275 1.75 1.12044 1.85865 0.927046 2.05205C0.733649 2.24544 0.625 2.50775 0.625 2.78125V6.25C0.625 8.16484 2.03125 9.75625 3.86406 10.0469C4.22734 12.7703 6.41406 14.9148 9.15625 15.2148V17.6805H4.5625C4.14766 17.6805 3.8125 18.0156 3.8125 18.4305V19.1875C3.8125 19.2906 3.89687 19.375 4 19.375H16C16.1031 19.375 16.1875 19.2906 16.1875 19.1875V18.4305C16.1875 18.0156 15.8523 17.6805 15.4375 17.6805H10.8438V15.2148C13.5859 14.9148 15.7727 12.7703 16.1359 10.0469C17.9688 9.75625 19.375 8.16484 19.375 6.25V2.78125C19.375 2.50775 19.2663 2.24544 19.073 2.05205C18.8796 1.85865 18.6173 1.75 18.3438 1.75ZM3.8125 8.30313C3.37714 8.16406 2.99723 7.89025 2.72762 7.52122C2.45801 7.15219 2.31264 6.70703 2.3125 6.25V3.4375H3.8125V8.30313ZM14.5 9.25C14.5 10.4008 14.0523 11.4859 13.2367 12.2992C12.4211 13.1148 11.3383 13.5625 10.1875 13.5625H9.8125C8.66172 13.5625 7.57656 13.1148 6.76328 12.2992C5.94766 11.4836 5.5 10.4008 5.5 9.25V2.3125H14.5V9.25ZM17.6875 6.25C17.6875 7.21094 17.057 8.02656 16.1875 8.30313V3.4375H17.6875V6.25Z" fill="#1890FF"/>
    </g>
  </symbol>

  <symbol id="flag" viewBox="0 0 20 20">
    <g>
      <path d="M18.625 5.14844H12.625V2.5C12.625 2.08516 12.2898 1.75 11.875 1.75H2.3125V0.8125C2.3125 0.709375 2.22812 0.625 2.125 0.625H0.8125C0.709375 0.625 0.625 0.709375 0.625 0.8125V19.1875C0.625 19.2906 0.709375 19.375 0.8125 19.375H2.125C2.22812 19.375 2.3125 19.2906 2.3125 19.1875V13H8.125V15.6484C8.125 16.0633 8.46016 16.3984 8.875 16.3984H18.625C19.0398 16.3984 19.375 16.0633 19.375 15.6484V5.89844C19.375 5.48359 19.0398 5.14844 18.625 5.14844ZM2.3125 11.3125V3.4375H10.9375V11.3125H2.3125ZM17.6875 14.7109H9.8125V13H12.4375C12.5406 13 12.625 12.9156 12.625 12.8125V6.83594H17.6875V14.7109Z" fill="#1890FF"/>
    </g>
  </symbol>

  <symbol id="headphones" viewBox="0 0 18 18">
    <g>
      <path d="M9 0C4.02891 0 0 4.02891 0 9V17.4375C0 17.7492 0.250781 18 0.5625 18H4.875C5.70234 18 6.375 17.3273 6.375 16.5V11.625C6.375 10.7977 5.70234 10.125 4.875 10.125H1.6875V9C1.6875 4.96172 4.96172 1.6875 9 1.6875C13.0383 1.6875 16.3125 4.96172 16.3125 9V10.125H13.125C12.2977 10.125 11.625 10.7977 11.625 11.625V16.5C11.625 17.3273 12.2977 18 13.125 18H17.4375C17.7492 18 18 17.7492 18 17.4375V9C18 4.02891 13.9711 0 9 0ZM4.6875 11.8125V16.3125H1.6875V11.8125H4.6875ZM16.3125 16.3125H13.3125V11.8125H16.3125V16.3125Z" fill="#1890FF"/>
    </g>
  </symbol>

  <symbol id="house" viewBox="0 0 22 22">
    <g>
      <path d="M21.2883 10.9531C21.2883 10.9508 21.286 10.9508 21.286 10.9484L21.2438 10.8992C21.2414 10.8969 21.2391 10.8922 21.2344 10.8898C21.218 10.8711 21.1993 10.8523 21.1828 10.8336L12.1266 1.78436L11.5196 1.17733C11.3813 1.03993 11.1942 0.962818 10.9993 0.962818C10.8043 0.962818 10.6173 1.03993 10.4789 1.17733L0.815662 10.8359C0.641088 11.0096 0.512251 11.2238 0.440662 11.4594L0.426599 11.5086L0.419568 11.5344L0.412537 11.5625C0.407849 11.5789 0.405505 11.5953 0.403162 11.6117C0.403162 11.614 0.403162 11.6187 0.400818 11.6211C0.386755 11.6914 0.379724 11.7617 0.37738 11.8344V11.9117C0.37738 11.9234 0.37738 11.9351 0.379724 11.9469C0.379724 11.9586 0.379724 11.968 0.382068 11.9797C0.382068 11.9914 0.384412 12.0031 0.384412 12.0148C0.384412 12.0289 0.386755 12.043 0.389099 12.057C0.389099 12.064 0.391443 12.0711 0.391443 12.0781L0.398474 12.1367V12.139C0.518005 12.8539 1.15316 13.393 1.89847 13.393H2.89457V21.0312H19.1063V13.3976H20.1235C20.325 13.3976 20.5196 13.3578 20.6977 13.2828C20.8758 13.2078 21.0422 13.0976 21.1852 12.957C21.3248 12.8178 21.4355 12.6523 21.5107 12.4701C21.5859 12.2878 21.6243 12.0925 21.6235 11.8953C21.6235 11.5508 21.5063 11.2203 21.2883 10.9531ZM12.3118 19.3437H9.68676V14.5625H12.3118V19.3437ZM17.4188 11.7101V19.3437H13.8118V14C13.8118 13.482 13.3922 13.0625 12.8743 13.0625H9.12426C8.60629 13.0625 8.18676 13.482 8.18676 14V19.3437H4.57972V11.7101H2.32972L11.0016 3.0453L11.543 3.58671L19.6711 11.7101H17.4188Z" fill="#1890FF"/>
    </g>
  </symbol>

  <symbol id="rocket" viewBox="0 0 24 24">
    <g>
      <path d="M6.13434 14.5643C5.91403 14.9064 5.7359 15.2744 5.60699 15.6564H7.59449V13.0947C7.01324 13.4744 6.51637 13.9736 6.13434 14.5643ZM16.407 13.0947V15.6564H18.3945C18.2656 15.2744 18.0875 14.9064 17.8671 14.5643C17.4893 13.9771 16.9917 13.4763 16.407 13.0947ZM14.907 7.47207L12.0007 4.02676L9.09449 7.47207V15.6564H14.907V7.47207ZM12.0007 10.5002C11.7064 10.4942 11.426 10.373 11.22 10.1627C11.0139 9.95237 10.8985 9.66965 10.8985 9.37519C10.8985 9.08074 11.0139 8.79802 11.22 8.58769C11.426 8.37737 11.7064 8.2562 12.0007 8.25019C12.2951 8.2562 12.5754 8.37737 12.7815 8.58769C12.9876 8.79802 13.103 9.08074 13.103 9.37519C13.103 9.66965 12.9876 9.95237 12.7815 10.1627C12.5754 10.373 12.2951 10.4942 12.0007 10.5002Z" fill="#E6F7FF"/>
      <path d="M20.25 17.25C20.25 14.6344 18.7172 12.375 16.5 11.3227V7.43672C16.5 7.08281 16.3758 6.74063 16.1461 6.47109L12.5742 2.23594C12.4242 2.05781 12.2109 1.96875 12 1.96875C11.7891 1.96875 11.5758 2.05781 11.4258 2.23594L7.85391 6.47109C7.62578 6.74118 7.50043 7.08318 7.5 7.43672V11.3227C5.28281 12.375 3.75 14.6344 3.75 17.25H7.41797C7.36406 17.4187 7.33594 17.6016 7.33594 17.8078C7.33594 18.3258 7.51406 18.832 7.8375 19.2328C8.1015 19.5606 8.45115 19.8088 8.84766 19.95C9.38906 21.2156 10.6195 22.0312 12 22.0312C12.682 22.0312 13.343 21.8297 13.9078 21.45C14.4609 21.0797 14.8898 20.5617 15.15 19.95C15.5463 19.8097 15.896 19.5623 16.1602 19.2352C16.484 18.8307 16.6609 18.3283 16.6617 17.8102C16.6617 17.6133 16.6359 17.4258 16.5891 17.2523L20.25 17.25ZM7.59375 15.6562H5.60625C5.73516 15.2742 5.91328 14.9063 6.13359 14.5641C6.51563 13.9734 7.0125 13.4742 7.59375 13.0945V15.6562ZM9.09375 11.3227V7.47187L12 4.02656L14.9062 7.47187V15.6562H9.09375V11.3227ZM14.7211 18.3797C14.5992 18.45 14.4586 18.4781 14.3203 18.4594L13.8633 18.4031L13.7977 18.8578C13.6711 19.7461 12.8977 20.4164 12 20.4164C11.1023 20.4164 10.3289 19.7461 10.2023 18.8578L10.1367 18.4008L9.67969 18.4594C9.54074 18.4759 9.40017 18.4472 9.27891 18.3773C9.075 18.2602 8.94844 18.0422 8.94844 17.8055C8.94844 17.557 9.08672 17.3508 9.29062 17.2477H14.7117C14.918 17.3531 15.0539 17.5594 15.0539 17.8055C15.0516 18.0445 14.925 18.2648 14.7211 18.3797ZM16.4062 15.6562V13.0945C16.991 13.4761 17.4886 13.9769 17.8664 14.5641C18.0867 14.9063 18.2648 15.2742 18.3937 15.6562H16.4062V15.6562Z" fill="#1890FF"/>
      <path d="M10.875 9.375C10.875 9.67337 10.9935 9.95952 11.2045 10.1705C11.4155 10.3815 11.7016 10.5 12 10.5C12.2984 10.5 12.5845 10.3815 12.7955 10.1705C13.0065 9.95952 13.125 9.67337 13.125 9.375C13.125 9.07663 13.0065 8.79048 12.7955 8.5795C12.5845 8.36853 12.2984 8.25 12 8.25C11.7016 8.25 11.4155 8.36853 11.2045 8.5795C10.9935 8.79048 10.875 9.07663 10.875 9.375Z" fill="#1890FF"/>
    </g>
  </symbol>

  <symbol id="dropdown" viewBox="0 0 12 8">
    <g>
      <path d="M11.1308 0.6875H0.868303C0.56049 0.6875 0.388615 1.0125 0.57924 1.23437L5.71049 7.18437C5.85736 7.35469 6.14018 7.35469 6.28861 7.18437L11.4199 1.23437C11.6105 1.0125 11.4386 0.6875 11.1308 0.6875Z" fill="#BFBFBF"/>
    </g>
  </symbol>

  <symbol id="picture" viewBox="0 0 24 24">
    <g>
      <path d="M21.75 3.75H2.25C1.83516 3.75 1.5 4.08516 1.5 4.5V19.5C1.5 19.9148 1.83516 20.25 2.25 20.25H21.75C22.1648 20.25 22.5 19.9148 22.5 19.5V4.5C22.5 4.08516 22.1648 3.75 21.75 3.75ZM20.8125 18.5625H3.1875V17.6273L6.43359 13.7766L9.95156 17.9484L15.4242 11.4609L20.8125 17.85V18.5625ZM20.8125 15.5203L15.5672 9.3C15.4922 9.21094 15.3562 9.21094 15.2812 9.3L9.95156 15.6188L6.57656 11.618C6.50156 11.5289 6.36562 11.5289 6.29062 11.618L3.1875 15.2977V5.4375H20.8125V15.5203Z" fill="#1890FF"/>
      <path d="M9.95156 17.9484L6.43359 13.7766L3.1875 17.6273V18.5625H20.8125V17.85L15.4242 11.4609L9.95156 17.9484Z" fill="#E6F7FF"/>
      <path d="M3.1875 15.2977L6.29062 11.618C6.36562 11.5289 6.50156 11.5289 6.57656 11.618L9.95156 15.6188L15.2812 9.3C15.3562 9.21094 15.4922 9.21094 15.5672 9.3L20.8125 15.5203V5.4375H3.1875V15.2977ZM7.125 6.5625C7.39585 6.5625 7.66405 6.61585 7.91428 6.7195C8.16452 6.82315 8.39189 6.97507 8.58341 7.16659C8.77493 7.35811 8.92685 7.58548 9.0305 7.83572C9.13415 8.08595 9.1875 8.35415 9.1875 8.625C9.1875 8.89585 9.13415 9.16405 9.0305 9.41428C8.92685 9.66452 8.77493 9.89189 8.58341 10.0834C8.39189 10.2749 8.16452 10.4269 7.91428 10.5305C7.66405 10.6342 7.39585 10.6875 7.125 10.6875C6.57799 10.6875 6.05339 10.4702 5.66659 10.0834C5.2798 9.69661 5.0625 9.17201 5.0625 8.625C5.0625 8.07799 5.2798 7.55339 5.66659 7.16659C6.05339 6.7798 6.57799 6.5625 7.125 6.5625Z" fill="#E6F7FF"/>
      <path d="M6.46875 8.625C6.46875 8.79905 6.53789 8.96597 6.66096 9.08904C6.78403 9.21211 6.95095 9.28125 7.125 9.28125C7.29905 9.28125 7.46597 9.21211 7.58904 9.08904C7.71211 8.96597 7.78125 8.79905 7.78125 8.625C7.78125 8.45095 7.71211 8.28403 7.58904 8.16096C7.46597 8.03789 7.29905 7.96875 7.125 7.96875C6.95095 7.96875 6.78403 8.03789 6.66096 8.16096C6.53789 8.28403 6.46875 8.45095 6.46875 8.625Z" fill="#E6F7FF"/>
      <path d="M7.125 10.6875C7.39585 10.6875 7.66405 10.6342 7.91428 10.5305C8.16452 10.4269 8.39189 10.2749 8.58341 10.0834C8.77493 9.89189 8.92685 9.66452 9.0305 9.41428C9.13415 9.16405 9.1875 8.89585 9.1875 8.625C9.1875 8.35415 9.13415 8.08595 9.0305 7.83572C8.92685 7.58548 8.77493 7.35811 8.58341 7.16659C8.39189 6.97507 8.16452 6.82315 7.91428 6.7195C7.66405 6.61585 7.39585 6.5625 7.125 6.5625C6.57799 6.5625 6.05339 6.7798 5.66659 7.16659C5.2798 7.55339 5.0625 8.07799 5.0625 8.625C5.0625 9.17201 5.2798 9.69661 5.66659 10.0834C6.05339 10.4702 6.57799 10.6875 7.125 10.6875ZM7.125 7.96875C7.48828 7.96875 7.78125 8.26172 7.78125 8.625C7.78125 8.98828 7.48828 9.28125 7.125 9.28125C6.76172 9.28125 6.46875 8.98828 6.46875 8.625C6.46875 8.26172 6.76172 7.96875 7.125 7.96875Z" fill="#1890FF"/>
    </g>
  </symbol>

  <symbol id="tag-friends" viewBox="0 0 18 20">
    <g>
      <path d="M12.8976 13.0563C13.4648 12.7516 14.114 12.5781 14.8054 12.5781H14.8077C14.8781 12.5781 14.9109 12.4938 14.8593 12.4469C14.1403 11.8016 13.3189 11.2804 12.4288 10.9047C12.4195 10.9 12.4101 10.8977 12.4007 10.893C13.8562 9.83594 14.8031 8.11797 14.8031 6.17969C14.8031 2.96875 12.2062 0.367188 9.00228 0.367188C5.79837 0.367188 3.20384 2.96875 3.20384 6.17969C3.20384 8.11797 4.15072 9.83594 5.60853 10.893C5.59915 10.8977 5.58978 10.9 5.58041 10.9047C4.53275 11.3477 3.59291 11.9828 2.78431 12.7938C1.98039 13.5962 1.34036 14.5475 0.899936 15.5945C0.466608 16.6198 0.232745 17.7184 0.210874 18.8312C0.210248 18.8563 0.214636 18.8812 0.223778 18.9044C0.232921 18.9277 0.246633 18.949 0.264106 18.9669C0.28158 18.9848 0.302462 18.999 0.325521 19.0087C0.348581 19.0184 0.373352 19.0234 0.398374 19.0234H1.80228C1.90306 19.0234 1.98744 18.9414 1.98978 18.8406C2.03666 17.0312 2.76087 15.3367 4.04291 14.0523C5.36712 12.7234 7.12962 11.9922 9.00462 11.9922C10.3335 11.9922 11.6085 12.3602 12.7077 13.0492C12.736 13.067 12.7684 13.077 12.8017 13.0782C12.8351 13.0794 12.8681 13.0719 12.8976 13.0563ZM9.00462 10.2109C7.93119 10.2109 6.92103 9.79141 6.15931 9.02969C5.78453 8.65588 5.48742 8.21161 5.28509 7.72248C5.08276 7.23335 4.97921 6.70901 4.98041 6.17969C4.98041 5.10391 5.39994 4.09141 6.15931 3.32969C6.91869 2.56797 7.92884 2.14844 9.00462 2.14844C10.0804 2.14844 11.0882 2.56797 11.8499 3.32969C12.2247 3.70349 12.5218 4.14776 12.7242 4.63689C12.9265 5.12603 13.03 5.65036 13.0288 6.17969C13.0288 7.25547 12.6093 8.26797 11.8499 9.02969C11.0882 9.79141 10.0781 10.2109 9.00462 10.2109ZM17.6249 15.7891H15.6562V13.8203C15.6562 13.7172 15.5718 13.6328 15.4687 13.6328H14.1562C14.0531 13.6328 13.9687 13.7172 13.9687 13.8203V15.7891H11.9999C11.8968 15.7891 11.8124 15.8734 11.8124 15.9766V17.2891C11.8124 17.3922 11.8968 17.4766 11.9999 17.4766H13.9687V19.4453C13.9687 19.5484 14.0531 19.6328 14.1562 19.6328H15.4687C15.5718 19.6328 15.6562 19.5484 15.6562 19.4453V17.4766H17.6249C17.7281 17.4766 17.8124 17.3922 17.8124 17.2891V15.9766C17.8124 15.8734 17.7281 15.7891 17.6249 15.7891Z" fill="#1890FF"/>
    </g>
  </symbol>

  <symbol id="smile" viewBox="0 0 24 24">
    <g>
      <path d="M12 1.5C6.20156 1.5 1.5 6.20156 1.5 12C1.5 17.7984 6.20156 22.5 12 22.5C17.7984 22.5 22.5 17.7984 22.5 12C22.5 6.20156 17.7984 1.5 12 1.5ZM12 20.7188C7.18594 20.7188 3.28125 16.8141 3.28125 12C3.28125 7.18594 7.18594 3.28125 12 3.28125C16.8141 3.28125 20.7188 7.18594 20.7188 12C20.7188 16.8141 16.8141 20.7188 12 20.7188Z" fill="#1890FF"/>
      <path d="M12 3.28125C7.18594 3.28125 3.28125 7.18594 3.28125 12C3.28125 16.8141 7.18594 20.7188 12 20.7188C16.8141 20.7188 20.7188 16.8141 20.7188 12C20.7188 7.18594 16.8141 3.28125 12 3.28125ZM6.75 9.86719C6.75601 9.5728 6.87718 9.29249 7.0875 9.08641C7.29782 8.88034 7.58055 8.76492 7.875 8.76492C8.16945 8.76492 8.45218 8.88034 8.6625 9.08641C8.87282 9.29249 8.99399 9.5728 9 9.86719C8.99399 10.1616 8.87282 10.4419 8.6625 10.648C8.45218 10.854 8.16945 10.9695 7.875 10.9695C7.58055 10.9695 7.29782 10.854 7.0875 10.648C6.87718 10.4419 6.75601 10.1616 6.75 9.86719ZM12 16.2422C9.99609 16.2422 8.35313 14.6648 8.25 12.6891C8.24873 12.6637 8.25264 12.6383 8.26149 12.6144C8.27034 12.5906 8.28395 12.5688 8.30149 12.5504C8.31903 12.532 8.34013 12.5173 8.36351 12.5073C8.3869 12.4973 8.41207 12.4922 8.4375 12.4922H9.56484C9.66328 12.4922 9.74766 12.5672 9.75469 12.6656C9.84375 13.8258 10.8164 14.7422 12 14.7422C13.1836 14.7422 14.1586 13.8258 14.2453 12.6656C14.2523 12.5672 14.3367 12.4922 14.4352 12.4922H15.5625C15.5879 12.4922 15.6131 12.4973 15.6365 12.5073C15.6599 12.5173 15.681 12.532 15.6985 12.5504C15.716 12.5688 15.7297 12.5906 15.7385 12.6144C15.7474 12.6383 15.7513 12.6637 15.75 12.6891C15.6469 14.6648 14.0039 16.2422 12 16.2422ZM16.125 10.9922C15.8306 10.9862 15.5503 10.865 15.3442 10.6547C15.1382 10.4444 15.0227 10.1616 15.0227 9.86719C15.0227 9.57273 15.1382 9.29001 15.3442 9.07969C15.5503 8.86936 15.8306 8.7482 16.125 8.74219C16.4194 8.7482 16.6997 8.86936 16.9058 9.07969C17.1118 9.29001 17.2273 9.57273 17.2273 9.86719C17.2273 10.1616 17.1118 10.4444 16.9058 10.6547C16.6997 10.865 16.4194 10.9862 16.125 10.9922Z" fill="#E6F7FF"/>
      <path d="M6.75 9.86719C6.75 10.1656 6.86853 10.4517 7.0795 10.6627C7.29048 10.8737 7.57663 10.9922 7.875 10.9922C8.17337 10.9922 8.45952 10.8737 8.6705 10.6627C8.88147 10.4517 9 10.1656 9 9.86719C9 9.56882 8.88147 9.28267 8.6705 9.07169C8.45952 8.86071 8.17337 8.74219 7.875 8.74219C7.57663 8.74219 7.29048 8.86071 7.0795 9.07169C6.86853 9.28267 6.75 9.56882 6.75 9.86719ZM15.5625 12.4922H14.4352C14.3367 12.4922 14.2523 12.5672 14.2453 12.6656C14.1586 13.8258 13.1836 14.7422 12 14.7422C10.8164 14.7422 9.84375 13.8258 9.75469 12.6656C9.74766 12.5672 9.66328 12.4922 9.56484 12.4922H8.4375C8.41207 12.4922 8.3869 12.4973 8.36351 12.5073C8.34013 12.5173 8.31903 12.532 8.30149 12.5504C8.28395 12.5688 8.27034 12.5906 8.26149 12.6144C8.25264 12.6383 8.24873 12.6637 8.25 12.6891C8.35312 14.6648 9.99609 16.2422 12 16.2422C14.0039 16.2422 15.6469 14.6648 15.75 12.6891C15.7513 12.6637 15.7474 12.6383 15.7385 12.6144C15.7297 12.5906 15.716 12.5688 15.6985 12.5504C15.681 12.532 15.6599 12.5173 15.6365 12.5073C15.6131 12.4973 15.5879 12.4922 15.5625 12.4922ZM15 9.86719C15 10.1656 15.1185 10.4517 15.3295 10.6627C15.5405 10.8737 15.8266 10.9922 16.125 10.9922C16.4234 10.9922 16.7095 10.8737 16.9205 10.6627C17.1315 10.4517 17.25 10.1656 17.25 9.86719C17.25 9.56882 17.1315 9.28267 16.9205 9.07169C16.7095 8.86071 16.4234 8.74219 16.125 8.74219C15.8266 8.74219 15.5405 8.86071 15.3295 9.07169C15.1185 9.28267 15 9.56882 15 9.86719Z" fill="#1890FF"/>
    </g>
  </symbol>

  <symbol id="dots" viewBox="0 0 16 4">
    <g>
      <path d="M0.125 1.97656C0.125 2.14892 0.158949 2.3196 0.224908 2.47884C0.290867 2.63807 0.387546 2.78276 0.509422 2.90464C0.631299 3.02652 0.775988 3.12319 0.935228 3.18915C1.09447 3.25511 1.26514 3.28906 1.4375 3.28906C1.60986 3.28906 1.78053 3.25511 1.93977 3.18915C2.09901 3.12319 2.2437 3.02652 2.36558 2.90464C2.48745 2.78276 2.58413 2.63807 2.65009 2.47884C2.71605 2.3196 2.75 2.14892 2.75 1.97656C2.75 1.8042 2.71605 1.63353 2.65009 1.47429C2.58413 1.31505 2.48745 1.17036 2.36558 1.04848C2.2437 0.926608 2.09901 0.82993 1.93977 0.763971C1.78053 0.698012 1.60986 0.664063 1.4375 0.664063C1.26514 0.664063 1.09447 0.698012 0.935228 0.763971C0.775988 0.82993 0.631299 0.926608 0.509422 1.04848C0.387546 1.17036 0.290867 1.31505 0.224908 1.47429C0.158949 1.63353 0.125 1.8042 0.125 1.97656ZM6.6875 1.97656C6.6875 2.32466 6.82578 2.6585 7.07192 2.90464C7.31806 3.15078 7.6519 3.28906 8 3.28906C8.3481 3.28906 8.68194 3.15078 8.92808 2.90464C9.17422 2.6585 9.3125 2.32466 9.3125 1.97656C9.3125 1.62847 9.17422 1.29463 8.92808 1.04848C8.68194 0.802343 8.3481 0.664062 8 0.664063C7.6519 0.664062 7.31806 0.802343 7.07192 1.04848C6.82578 1.29463 6.6875 1.62847 6.6875 1.97656ZM13.25 1.97656C13.25 2.32466 13.3883 2.6585 13.6344 2.90464C13.8806 3.15078 14.2144 3.28906 14.5625 3.28906C14.9106 3.28906 15.2444 3.15078 15.4906 2.90464C15.7367 2.6585 15.875 2.32466 15.875 1.97656C15.875 1.62847 15.7367 1.29463 15.4906 1.04848C15.2444 0.802343 14.9106 0.664062 14.5625 0.664063C14.2144 0.664062 13.8806 0.802343 13.6344 1.04848C13.3883 1.29463 13.25 1.62847 13.25 1.97656Z" fill="#595959"/>
    </g>
  </symbol>

  <symbol id="gear" viewBox="0 0 12 14">
    <g>
      <path d="M11.6438 8.55473L10.7483 7.7891C10.7907 7.52934 10.8126 7.2641 10.8126 6.99887C10.8126 6.73363 10.7907 6.4684 10.7483 6.20863L11.6438 5.44301C11.7114 5.38519 11.7597 5.30817 11.7824 5.22221C11.8051 5.13624 11.8011 5.0454 11.771 4.96176L11.7587 4.92621C11.5121 4.23719 11.143 3.59845 10.669 3.04086L10.6444 3.01215C10.5869 2.94454 10.5103 2.89595 10.4246 2.87276C10.339 2.84958 10.2483 2.85289 10.1645 2.88227L9.05301 3.27738C8.64285 2.94106 8.18485 2.67582 7.68992 2.48988L7.47528 1.32777C7.45908 1.24033 7.41667 1.15989 7.35366 1.09713C7.29066 1.03437 7.21005 0.992262 7.12254 0.976407L7.08563 0.969571C6.37332 0.841055 5.6241 0.841055 4.9118 0.969571L4.87489 0.976407C4.78738 0.992262 4.70677 1.03437 4.64377 1.09713C4.58076 1.15989 4.53835 1.24033 4.52215 1.32777L4.30614 2.49535C3.81516 2.68133 3.35795 2.94642 2.95262 3.28012L1.83289 2.88227C1.74918 2.85266 1.65843 2.84922 1.57271 2.87242C1.487 2.89562 1.41037 2.94436 1.35301 3.01215L1.3284 3.04086C0.855009 3.59884 0.485909 4.23747 0.238754 4.92621L0.226449 4.96176C0.164926 5.13266 0.215512 5.32406 0.353598 5.44301L1.26004 6.21684C1.21766 6.47387 1.19715 6.73637 1.19715 6.9975C1.19715 7.26 1.21766 7.5225 1.26004 7.77817L0.353598 8.55199C0.286053 8.60982 0.23771 8.68683 0.214998 8.7728C0.192285 8.85876 0.19628 8.9496 0.226449 9.03324L0.238754 9.06879C0.486215 9.75785 0.852621 10.3936 1.3284 10.9541L1.35301 10.9829C1.41051 11.0505 1.48714 11.0991 1.5728 11.1222C1.65847 11.1454 1.74915 11.1421 1.83289 11.1127L2.95262 10.7149C3.36004 11.0498 3.81532 11.3151 4.30614 11.4997L4.52215 12.6672C4.53835 12.7547 4.58076 12.8351 4.64377 12.8979C4.70677 12.9606 4.78738 13.0027 4.87489 13.0186L4.9118 13.0254C5.63065 13.1546 6.36678 13.1546 7.08563 13.0254L7.12254 13.0186C7.21005 13.0027 7.29066 12.9606 7.35366 12.8979C7.41667 12.8351 7.45908 12.7547 7.47528 12.6672L7.68992 11.5051C8.18465 11.3197 8.64524 11.0536 9.05301 10.7176L10.1645 11.1127C10.2483 11.1423 10.339 11.1458 10.4247 11.1226C10.5104 11.0994 10.5871 11.0506 10.6444 10.9829L10.669 10.9541C11.1448 10.3922 11.5112 9.75785 11.7587 9.06879L11.771 9.03324C11.8325 8.86508 11.7819 8.67367 11.6438 8.55473ZM9.77762 6.36996C9.8118 6.57641 9.82957 6.78832 9.82957 7.00024C9.82957 7.21215 9.8118 7.42406 9.77762 7.63051L9.68739 8.17875L10.7087 9.05238C10.5539 9.40907 10.3584 9.74672 10.1263 10.0586L8.8575 9.60883L8.42821 9.96156C8.10145 10.2295 7.73778 10.4401 7.34403 10.5877L6.82313 10.7832L6.5784 12.1094C6.19227 12.1532 5.80243 12.1532 5.41629 12.1094L5.17157 10.7805L4.65477 10.5823C4.26512 10.4346 3.90282 10.2241 3.57879 9.95746L3.1495 9.60336L1.87254 10.0573C1.64012 9.74418 1.44598 9.40649 1.29012 9.05102L2.32235 8.16918L2.23348 7.62231C2.20067 7.41859 2.18289 7.20805 2.18289 7.00024C2.18289 6.79106 2.1993 6.58188 2.23348 6.37816L2.32235 5.83129L1.29012 4.94945C1.44461 4.59262 1.64012 4.25629 1.87254 3.9432L3.1495 4.39711L3.57879 4.04301C3.90282 3.77641 4.26512 3.56586 4.65477 3.4182L5.17293 3.2227L5.41766 1.89379C5.80184 1.85004 6.19422 1.85004 6.57977 1.89379L6.8245 3.21996L7.34539 3.41547C7.73778 3.56313 8.10282 3.77367 8.42957 4.04164L8.85887 4.39438L10.1276 3.94457C10.36 4.25766 10.5542 4.59535 10.71 4.95082L9.68875 5.82445L9.77762 6.36996ZM6.00008 4.45727C4.67118 4.45727 3.59383 5.53461 3.59383 6.86352C3.59383 8.19242 4.67118 9.26977 6.00008 9.26977C7.32899 9.26977 8.40633 8.19242 8.40633 6.86352C8.40633 5.53461 7.32899 4.45727 6.00008 4.45727ZM7.08289 7.94633C6.94087 8.08876 6.77209 8.2017 6.58626 8.27866C6.40043 8.35562 6.20122 8.39508 6.00008 8.39477C5.59129 8.39477 5.20711 8.23481 4.91727 7.94633C4.77484 7.80431 4.6619 7.63553 4.58494 7.4497C4.50798 7.26387 4.46852 7.06465 4.46883 6.86352C4.46883 6.45473 4.62879 6.07055 4.91727 5.7807C5.20711 5.49086 5.59129 5.33227 6.00008 5.33227C6.40887 5.33227 6.79305 5.49086 7.08289 5.7807C7.22532 5.92272 7.33827 6.09151 7.41523 6.27734C7.49219 6.46317 7.53164 6.66238 7.53133 6.86352C7.53133 7.27231 7.37137 7.65649 7.08289 7.94633Z" fill="#8C8C8C"/>
    </g>
  </symbol>

  <symbol id="like" viewBox="0 0 16 16">
    <g>
      <path d="M4.26562 7.74846V14.436L4.27031 7.74846H4.26562ZM12.675 6.36877H7.7625L7.9125 3.26877C7.92188 3.08283 7.83906 2.90783 7.68437 2.79221C7.58906 2.72189 7.47188 2.68596 7.35469 2.68752C7.04844 2.68908 6.77813 2.89689 6.69531 3.19221C6.11563 5.29221 5.68125 6.86721 5.39062 7.91877V13.3125H11.6313C11.7874 13.2425 11.9201 13.1289 12.0132 12.9853C12.1063 12.8417 12.156 12.6743 12.1562 12.5031C12.1562 12.3516 12.1203 12.2078 12.0484 12.0766L11.8313 11.6797L12.1734 11.3828C12.2698 11.2994 12.347 11.1962 12.3998 11.0803C12.4527 10.9643 12.4799 10.8384 12.4797 10.711C12.4797 10.5594 12.4437 10.4156 12.3719 10.2844L12.1547 9.88752L12.4969 9.59064C12.5932 9.50723 12.6704 9.40403 12.7232 9.28809C12.7761 9.17215 12.8033 9.04618 12.8031 8.91877C12.8031 8.76721 12.7672 8.62346 12.6953 8.49221L12.4766 8.09377L12.8188 7.79689C12.9151 7.71348 12.9923 7.61028 13.0451 7.49434C13.098 7.3784 13.1252 7.25243 13.125 7.12502C13.125 6.82658 12.9531 6.53908 12.675 6.36877Z" fill="currentColor"/>
      <path d="M1.75 8.25005V13.9375C1.75 14.2141 1.97344 14.4375 2.25 14.4375H3.26562V7.75005H2.25C1.97344 7.75005 1.75 7.97349 1.75 8.25005ZM13.8422 8.33911C14.1047 7.99224 14.25 7.56724 14.25 7.12505C14.25 6.42349 13.8578 5.75786 13.2266 5.39067C13.0641 5.29535 12.879 5.24519 12.6906 5.24536H8.94219L9.03594 3.32505C9.05937 2.86099 8.89531 2.42036 8.575 2.08442C8.4187 1.91868 8.23 1.78683 8.02061 1.69705C7.81123 1.60728 7.58563 1.5615 7.35781 1.56255C6.54531 1.56255 5.82656 2.10942 5.61094 2.89224L4.27031 7.74849L4.26562 14.436H11.6422C11.7875 14.436 11.9266 14.4079 12.0562 14.3516C12.8 14.0344 13.2797 13.3079 13.2797 12.5016C13.2797 12.3047 13.2516 12.111 13.1953 11.9235C13.4578 11.5766 13.6031 11.1516 13.6031 10.7094C13.6031 10.5125 13.575 10.3188 13.5188 10.1313C13.7812 9.78442 13.9266 9.35942 13.9266 8.91724C13.9266 8.72036 13.8984 8.52661 13.8422 8.33911ZM12.8188 7.79692L12.4766 8.0938L12.6953 8.49224C12.7669 8.62297 12.804 8.76976 12.8031 8.9188C12.8031 9.17661 12.6922 9.42192 12.4969 9.59067L12.1547 9.88755L12.3719 10.2844C12.4434 10.4152 12.4805 10.562 12.4797 10.711C12.4797 10.9688 12.3687 11.2141 12.1734 11.3829L11.8313 11.6797L12.0484 12.0766C12.12 12.2073 12.1571 12.3541 12.1562 12.5032C12.1562 12.8532 11.95 13.1688 11.6313 13.3125H5.39062V7.9188C5.68125 6.8688 6.11562 5.2938 6.69531 3.19224C6.73581 3.04809 6.82198 2.92098 6.94087 2.82998C7.05977 2.73898 7.20497 2.689 7.35469 2.68755C7.47188 2.68599 7.58906 2.72192 7.68437 2.79224C7.83906 2.90786 7.92188 3.08286 7.9125 3.2688L7.7625 6.3688H12.675C12.9531 6.53911 13.125 6.82661 13.125 7.12505C13.125 7.38286 13.0141 7.62817 12.8188 7.79692Z"/>
    </g>
  </symbol>

  <symbol id="share" viewBox="0 0 18 20">
    <g>
      <path d="M14.625 13.5625C13.957 13.5625 13.3406 13.7969 12.8578 14.1883L8.00156 10.675C8.08288 10.2287 8.08288 9.77133 8.00156 9.325L12.8578 5.81172C13.3406 6.20312 13.957 6.4375 14.625 6.4375C16.1766 6.4375 17.4375 5.17656 17.4375 3.625C17.4375 2.07344 16.1766 0.8125 14.625 0.8125C13.0734 0.8125 11.8125 2.07344 11.8125 3.625C11.8125 3.89687 11.85 4.15703 11.9227 4.40547L7.31016 7.74531C6.62578 6.83828 5.53828 6.25 4.3125 6.25C2.24062 6.25 0.5625 7.92812 0.5625 10C0.5625 12.0719 2.24062 13.75 4.3125 13.75C5.53828 13.75 6.62578 13.1617 7.31016 12.2547L11.9227 15.5945C11.85 15.843 11.8125 16.1055 11.8125 16.375C11.8125 17.9266 13.0734 19.1875 14.625 19.1875C16.1766 19.1875 17.4375 17.9266 17.4375 16.375C17.4375 14.8234 16.1766 13.5625 14.625 13.5625ZM14.625 2.40625C15.2977 2.40625 15.8438 2.95234 15.8438 3.625C15.8438 4.29766 15.2977 4.84375 14.625 4.84375C13.9523 4.84375 13.4062 4.29766 13.4062 3.625C13.4062 2.95234 13.9523 2.40625 14.625 2.40625ZM4.3125 12.0625C3.17578 12.0625 2.25 11.1367 2.25 10C2.25 8.86328 3.17578 7.9375 4.3125 7.9375C5.44922 7.9375 6.375 8.86328 6.375 10C6.375 11.1367 5.44922 12.0625 4.3125 12.0625ZM14.625 17.5938C13.9523 17.5938 13.4062 17.0477 13.4062 16.375C13.4062 15.7023 13.9523 15.1562 14.625 15.1562C15.2977 15.1562 15.8438 15.7023 15.8438 16.375C15.8438 17.0477 15.2977 17.5938 14.625 17.5938Z" fill="#595959"/>
    </g>
  </symbol>
</svg>
